# This file uses centimeters as units for non-parametric coordinates.

mtllib candybar.mtl
g default
v -13.003433 -1.654179 26.180921
v 13.003433 -1.654179 26.180921
v -13.003433 -1.654179 -26.180921
v 13.003433 -1.654179 -26.180921
v 0.000000 -1.654179 26.180921
v 0.000000 -1.654179 -26.180921
v -10.402746 1.654179 0.000000
v 10.402746 1.654179 0.000000
v 13.003433 -1.654179 0.000000
v -13.003433 -1.654179 0.000000
v -10.402746 1.654179 23.562827
v 0.000000 1.654179 23.562827
v 10.402745 1.654179 23.562827
v 10.402746 1.654179 -23.562827
v 0.000000 1.654179 -23.562827
v -10.402745 1.654179 -23.562827
v -13.003433 3.169582 0.000000
v -10.807640 3.169582 0.000000
v -10.807640 3.169582 -24.479937
v 10.807640 3.169582 -24.479937
v 10.807640 3.169582 -0.000000
v 13.003433 3.169582 -0.000000
v -10.807640 3.169582 24.479937
v 10.807640 3.169582 24.479937
v -13.003433 3.169582 26.180921
v -0.000000 3.169582 24.479937
v -0.000000 3.169582 26.180921
v 13.003433 3.169582 26.180921
v 13.003433 3.169582 -26.180921
v 0.000000 3.169582 -26.180921
v 0.000000 3.169582 -24.479937
v -13.003433 3.169582 -26.180921
v -5.201372 1.654179 -23.562827
v -5.201373 1.654179 23.562827
v 5.201373 1.654179 -23.562827
v 5.201372 1.654179 23.562827
v -10.142677 1.654179 0.000000
v -5.461441 1.654179 0.000000
v -4.941304 1.654179 0.000000
v -0.260069 1.654179 0.000000
v 0.260069 1.654179 0.000000
v 4.941304 1.654179 0.000000
v 5.461441 1.654179 0.000000
v 10.142677 1.654179 0.000000
v 10.402746 1.654179 -11.781414
v 10.142677 1.654179 -11.781413
v 5.461441 1.654179 -11.781414
v 4.941304 1.654179 -11.781413
v 0.260069 1.654179 -11.781414
v -0.260069 1.654179 -11.781413
v -4.941304 1.654179 -11.781414
v -5.461441 1.654179 -11.781413
v -10.142676 1.654179 -11.781414
v -10.402746 1.654179 -11.781414
v -10.402746 1.654179 11.781414
v -10.142677 1.654179 11.781413
v -5.461441 1.654179 11.781414
v -4.941304 1.654179 11.781413
v -0.260069 1.654179 11.781414
v 0.260069 1.654179 11.781413
v 4.941304 1.654179 11.781414
v 5.461441 1.654179 11.781413
v 10.142676 1.654179 11.781414
v 10.402746 1.654179 11.781414
v 10.142677 2.831326 -23.268290
v 5.461441 2.831326 -23.268291
v 5.201372 1.654179 -23.268291
v 4.941304 2.831326 -23.268290
v 0.260069 2.831326 -23.268291
v 0.000000 1.654179 -23.268291
v -0.260069 2.831326 -23.268290
v -4.941303 2.831326 -23.268291
v -5.201372 1.654179 -23.268291
v -5.461441 2.831326 -23.268290
v -10.142676 2.831326 -23.268291
v 10.142677 2.831326 -12.075948
v 5.461441 2.831326 -12.075949
v 5.201373 1.654179 -12.075949
v 4.941304 2.831326 -12.075948
v 0.260069 2.831326 -12.075949
v 0.000000 1.654179 -12.075949
v -0.260069 2.831326 -12.075948
v -4.941304 2.831326 -12.075949
v -5.201373 1.654179 -12.075949
v -5.461441 2.831326 -12.075948
v -10.142676 2.831326 -12.075949
v 10.142677 2.831326 -11.486877
v 5.461441 2.831326 -11.486878
v 5.201372 1.654179 -11.486878
v 4.941304 2.831326 -11.486877
v 0.260069 2.831326 -11.486878
v 0.000000 1.654180 -11.486878
v -0.260069 2.831326 -11.486877
v -4.941303 2.831326 -11.486878
v -5.201372 1.654180 -11.486878
v -5.461441 2.831326 -11.486877
v -10.142676 2.831326 -11.486878
v 10.142677 2.831326 -0.294535
v 5.461441 2.831326 -0.294535
v 5.201373 1.654179 -0.294535
v 4.941304 2.831326 -0.294535
v 0.260069 2.831326 -0.294535
v 0.000000 1.654180 -0.294535
v -0.260069 2.831326 -0.294535
v -4.941304 2.831326 -0.294535
v -5.201373 1.654180 -0.294535
v -5.461441 2.831326 -0.294535
v -10.142677 2.831326 -0.294535
v -10.142677 2.831326 0.294535
v -5.461441 2.831326 0.294535
v -5.201372 1.654179 0.294535
v -4.941304 2.831326 0.294535
v -0.260069 2.831326 0.294535
v 0.000000 1.654180 0.294535
v 0.260069 2.831326 0.294535
v 4.941304 2.831326 0.294535
v 5.201372 1.654180 0.294535
v 5.461441 2.831326 0.294535
v 10.142677 2.831326 0.294535
v 10.142676 2.831326 11.486878
v 5.461441 2.831326 11.486877
v 5.201373 1.654179 11.486878
v 4.941304 2.831326 11.486878
v 0.260069 2.831326 11.486877
v 0.000000 1.654180 11.486878
v -0.260069 2.831326 11.486878
v -4.941304 2.831326 11.486877
v -5.201373 1.654180 11.486878
v -5.461441 2.831326 11.486878
v -10.142677 2.831326 11.486877
v -10.142677 2.831326 12.075947
v -5.461441 2.831326 12.075949
v -5.201372 1.654179 12.075949
v -4.941304 2.831326 12.075947
v -0.260069 2.831326 12.075949
v 0.000000 1.654180 12.075949
v 0.260069 2.831326 12.075947
v 4.941303 2.831326 12.075949
v 5.201372 1.654180 12.075949
v 5.461441 2.831326 12.075947
v 10.142676 2.831326 12.075949
v 10.142676 2.831326 23.268291
v 5.461441 2.831326 23.268290
v 5.201372 1.654180 23.268291
v 4.941304 2.831326 23.268291
v 0.260069 2.831326 23.268290
v 0.000000 1.654180 23.268291
v -0.260069 2.831326 23.268291
v -4.941304 2.831326 23.268290
v -5.201373 1.654180 23.268291
v -5.461441 2.831326 23.268291
v -10.142677 2.831326 23.268290
vt 0.375000 0.000000
vt 0.625000 0.000000
vt 0.375000 0.750000
vt 0.625000 0.750000
vt 0.375000 1.000000
vt 0.625000 1.000000
vt 0.875000 0.000000
vt 0.125000 0.000000
vt 0.500000 0.000000
vt 0.500000 1.000000
vt 0.500000 0.750000
vt 0.400000 0.375000
vt 0.600000 0.375000
vt 0.625000 0.875000
vt 0.750000 0.000000
vt 0.250000 0.000000
vt 0.375000 0.875000
vt 0.400000 0.262500
vt 0.500000 0.262500
vt 0.600000 0.262500
vt 0.600000 0.487500
vt 0.500000 0.487500
vt 0.400000 0.487500
vt 0.400000 0.375000
vt 0.400000 0.487500
vt 0.375000 0.375000
vt 0.600000 0.487500
vt 0.600000 0.375000
vt 0.625000 0.375000
vt 0.400000 0.262500
vt 0.600000 0.262500
vt 0.375000 0.250000
vt 0.500000 0.262500
vt 0.500000 0.250000
vt 0.625000 0.250000
vt 0.625000 0.500000
vt 0.500000 0.487500
vt 0.500000 0.500000
vt 0.375000 0.500000
vt 0.450000 0.487500
vt 0.450000 0.262500
vt 0.550000 0.487500
vt 0.550000 0.262500
vt 0.402500 0.375000
vt 0.447500 0.375000
vt 0.452500 0.375000
vt 0.497500 0.375000
vt 0.502500 0.375000
vt 0.547500 0.375000
vt 0.552500 0.375000
vt 0.597500 0.375000
vt 0.600000 0.431250
vt 0.597500 0.431250
vt 0.552500 0.431250
vt 0.547500 0.431250
vt 0.502500 0.431250
vt 0.497500 0.431250
vt 0.452500 0.431250
vt 0.447500 0.431250
vt 0.402500 0.431250
vt 0.400000 0.431250
vt 0.400000 0.318750
vt 0.402500 0.318750
vt 0.447500 0.318750
vt 0.452500 0.318750
vt 0.497500 0.318750
vt 0.502500 0.318750
vt 0.547500 0.318750
vt 0.552500 0.318750
vt 0.597500 0.318750
vt 0.600000 0.318750
vt 0.597500 0.486094
vt 0.552500 0.486094
vt 0.550000 0.486094
vt 0.547500 0.486094
vt 0.502500 0.486094
vt 0.500000 0.486094
vt 0.497500 0.486094
vt 0.452500 0.486094
vt 0.450000 0.486094
vt 0.447500 0.486094
vt 0.402500 0.486094
vt 0.597500 0.432656
vt 0.552500 0.432656
vt 0.550000 0.432656
vt 0.547500 0.432656
vt 0.502500 0.432656
vt 0.500000 0.432656
vt 0.497500 0.432656
vt 0.452500 0.432656
vt 0.450000 0.432656
vt 0.447500 0.432656
vt 0.402500 0.432656
vt 0.597500 0.429844
vt 0.552500 0.429844
vt 0.550000 0.429844
vt 0.547500 0.429844
vt 0.502500 0.429844
vt 0.500000 0.429844
vt 0.497500 0.429844
vt 0.452500 0.429844
vt 0.450000 0.429844
vt 0.447500 0.429844
vt 0.402500 0.429844
vt 0.597500 0.376406
vt 0.552500 0.376406
vt 0.550000 0.376406
vt 0.547500 0.376406
vt 0.502500 0.376406
vt 0.500000 0.376406
vt 0.497500 0.376406
vt 0.452500 0.376406
vt 0.450000 0.376406
vt 0.447500 0.376406
vt 0.402500 0.376406
vt 0.402500 0.373594
vt 0.447500 0.373594
vt 0.450000 0.373594
vt 0.452500 0.373594
vt 0.497500 0.373594
vt 0.500000 0.373594
vt 0.502500 0.373594
vt 0.547500 0.373594
vt 0.550000 0.373594
vt 0.552500 0.373594
vt 0.597500 0.373594
vt 0.597500 0.320156
vt 0.552500 0.320156
vt 0.550000 0.320156
vt 0.547500 0.320156
vt 0.502500 0.320156
vt 0.500000 0.320156
vt 0.497500 0.320156
vt 0.452500 0.320156
vt 0.450000 0.320156
vt 0.447500 0.320156
vt 0.402500 0.320156
vt 0.402500 0.317344
vt 0.447500 0.317344
vt 0.450000 0.317344
vt 0.452500 0.317344
vt 0.497500 0.317344
vt 0.500000 0.317344
vt 0.502500 0.317344
vt 0.547500 0.317344
vt 0.550000 0.317344
vt 0.552500 0.317344
vt 0.597500 0.317344
vt 0.597500 0.263906
vt 0.552500 0.263906
vt 0.550000 0.263906
vt 0.547500 0.263906
vt 0.502500 0.263906
vt 0.500000 0.263906
vt 0.497500 0.263906
vt 0.452500 0.263906
vt 0.450000 0.263906
vt 0.447500 0.263906
vt 0.402500 0.263906
vn 0.000000 -1.000000 0.000000
vn 0.000000 -1.000000 0.000000
vn 0.000000 -1.000000 0.000000
vn 0.000000 -1.000000 0.000000
vn 0.000000 0.000000 -1.000000
vn 0.000000 0.000000 -1.000000
vn 0.000000 0.000000 -1.000000
vn 0.000000 0.000000 -1.000000
vn -0.225371 0.969702 0.094262
vn -0.000000 1.000000 0.000000
vn -0.225382 0.969699 -0.094267
vn -0.000000 1.000000 0.000000
vn 0.000000 0.000000 -1.000000
vn 0.000000 0.000000 -1.000000
vn 0.232789 0.967981 0.093923
vn 0.976441 0.215783 -0.000000
vn 0.880612 0.288589 -0.375818
vn 0.232243 0.967433 -0.100678
vn -1.000000 0.000000 0.000000
vn -1.000000 0.000000 0.000000
vn -1.000000 0.000000 0.000000
vn -1.000000 0.000000 0.000000
vn 0.000000 1.000000 -0.000000
vn 0.000000 1.000000 -0.000000
vn 0.000000 1.000000 -0.000000
vn 0.000000 1.000000 -0.000000
vn 0.000000 1.000000 -0.000000
vn 0.000000 1.000000 0.000000
vn 0.000000 1.000000 0.000000
vn 0.000000 1.000000 0.000000
vn 0.000000 1.000000 0.000000
vn 0.000000 1.000000 0.000000
vn 0.000000 1.000000 0.000000
vn 0.000000 1.000000 0.000000
vn 0.000000 1.000000 0.000000
vn 0.000000 1.000000 -0.000000
vn 0.000000 1.000000 -0.000000
vn 0.000000 1.000000 -0.000000
vn -1.000000 0.000000 0.000000
vn -1.000000 0.000000 0.000000
vn 0.966110 0.258131 0.000000
vn 0.966110 0.258131 0.000000
vn 0.966110 0.258132 0.000000
vn -0.966110 0.258131 -0.000000
vn -0.966110 0.258131 0.000000
vn -0.966110 0.258131 0.000000
vn -0.966110 0.258131 -0.000000
vn 1.000000 0.000000 0.000000
vn 1.000000 0.000000 0.000000
vn 1.000000 0.000000 0.000000
vn 1.000000 0.000000 0.000000
vn 0.966110 0.258131 0.000000
vn 0.966110 0.258131 0.000000
vn 0.966110 0.258131 0.000000
vn -0.966110 0.258131 -0.000000
vn -0.966110 0.258132 -0.000000
vn 0.000000 0.000000 1.000000
vn 0.000000 0.000000 1.000000
vn 0.000000 0.000000 1.000000
vn 0.000000 0.000000 1.000000
vn 0.000000 0.517758 -0.855527
vn 0.000000 0.517758 -0.855527
vn 0.000000 0.517758 -0.855527
vn 0.000000 0.517758 -0.855527
vn 0.000000 0.517758 -0.855527
vn 0.000000 0.517758 -0.855527
vn 0.000000 0.000000 1.000000
vn 0.000000 0.000000 1.000000
vn 1.000000 0.000000 0.000000
vn 1.000000 0.000000 0.000000
vn 0.000000 0.517758 0.855527
vn 0.000000 0.517758 0.855527
vn 0.000000 0.517758 0.855527
vn 0.000000 0.517758 0.855527
vn 0.000000 0.517758 0.855527
vn 0.000000 0.517758 0.855527
vn -0.000000 1.000000 0.000000
vn 0.225362 0.969705 0.094258
vn 0.000000 1.000000 0.000000
vn 0.225362 0.969705 -0.094258
vn -0.225362 0.969705 -0.094258
vn -0.000000 1.000000 0.000000
vn 0.225382 0.969699 -0.094267
vn 0.000000 1.000000 0.000000
vn 0.000000 1.000000 0.000000
vn -0.232789 0.967981 0.093923
vn -0.976441 0.215783 -0.000000
vn -0.232789 0.967981 -0.093923
vn 0.000000 1.000000 0.000000
vn -0.232789 0.967981 0.093923
vn -0.976441 0.215783 0.000000
vn -0.232789 0.967981 -0.093923
vn 0.000000 1.000000 0.000000
vn 0.225362 0.969705 0.094258
vn -0.000000 1.000000 0.000000
vn 0.225362 0.969705 -0.094258
vn -0.000000 1.000000 0.000000
vn 0.225371 0.969702 0.094262
vn -0.225382 0.969699 0.094267
vn 0.000000 1.000000 0.000000
vn 0.225382 0.969699 0.094267
vn -0.225382 0.969699 0.094267
vn -0.225371 0.969702 -0.094262
vn 0.000000 1.000000 0.000000
vn 0.225371 0.969702 -0.094262
vn 0.000000 1.000000 0.000000
vn 0.225382 0.969699 0.094267
vn -0.000000 1.000000 0.000000
vn 0.000000 1.000000 0.000000
vn 0.225382 0.969699 0.094267
vn -0.225382 0.969699 0.094267
vn -0.225362 0.969705 -0.094258
vn 0.225382 0.969699 -0.094267
vn 0.000000 1.000000 -0.000000
vn -0.000000 1.000000 -0.000000
vn 0.232789 0.967981 0.093923
vn -0.225362 0.969705 0.094258
vn -0.000000 1.000000 -0.000000
vn -0.000000 1.000000 0.000000
vn 0.000000 1.000000 0.000000
vn 0.232789 0.967981 0.093923
vn -0.225362 0.969705 0.094258
vn -0.225382 0.969699 -0.094267
vn 0.232789 0.967981 -0.093923
vn 0.232789 0.967981 -0.093923
vn -0.225382 0.969699 -0.094267
vn 0.225382 0.969699 -0.094267
vn -0.880612 0.288589 -0.375818
vn -0.976441 0.215783 -0.000000
vn -0.232789 0.967981 0.093923
vn -0.232243 0.967433 -0.100678
vn 0.000000 1.000000 0.000000
vn 0.225362 0.969705 0.094258
vn 0.000000 1.000000 -0.000000
vn 0.000000 1.000000 0.000000
vn 0.225371 0.969702 0.094262
vn -0.225382 0.969699 0.094267
vn 0.000000 1.000000 0.000000
vn 0.000000 1.000000 0.000000
vn 0.225382 0.969699 0.094267
vn -0.225371 0.969702 0.094262
vn 0.000000 1.000000 0.000000
vn 0.000000 1.000000 -0.000000
vn -0.225362 0.969705 0.094258
vn 0.000000 1.000000 -0.000000
vn -0.000000 1.000000 -0.000000
vn -0.224848 0.969141 -0.101044
vn 0.000000 0.242949 -0.970039
vn 0.224848 0.969141 -0.101044
vn 0.000000 1.000000 0.000000
vn -0.224848 0.969141 -0.101044
vn -0.000000 1.000000 0.000000
vn 0.000000 1.000000 0.000000
vn 0.224848 0.969141 -0.101044
vn -0.224848 0.969141 -0.101044
vn -0.000000 1.000000 0.000000
vn 0.000000 1.000000 0.000000
vn 0.224848 0.969141 -0.101044
vn 0.232789 0.967981 -0.093923
vn -0.225362 0.969705 -0.094258
vn 0.225382 0.969699 -0.094267
vn -0.000000 1.000000 -0.000000
vn -0.225382 0.969699 -0.094267
vn -0.000001 1.000000 0.000000
vn 0.225382 0.969699 -0.094267
vn -0.225382 0.969699 -0.094267
vn 0.225362 0.969705 -0.094258
vn -0.232789 0.967981 -0.093923
vn -0.000000 1.000000 -0.000000
vn -0.000001 1.000000 0.000000
vn -0.000001 1.000000 -0.000000
vn -0.000001 1.000000 -0.000000
vn 0.000000 1.000000 0.000000
vn 0.000000 1.000000 -0.000000
vn -0.000000 1.000000 -0.000000
vn -0.224848 0.969141 0.101044
vn 0.232243 0.967433 0.100678
vn 0.000001 1.000000 -0.000000
vn 0.224848 0.969141 0.101044
vn -0.224848 0.969141 0.101044
vn 0.000001 1.000000 0.000000
vn 0.224848 0.969141 0.101044
vn -0.224848 0.969140 0.101044
vn 0.000000 1.000000 -0.000000
vn 0.000001 1.000000 -0.000000
vn 0.224848 0.969141 0.101044
vn -0.232243 0.967433 0.100678
vn 0.000000 0.242948 0.970039
vn 0.880612 0.288590 0.375818
vn 0.000000 0.517758 0.855527
vn 0.000000 0.242949 -0.970039
vn 0.000000 0.242948 -0.970039
vn 0.000000 0.517758 0.855527
vn 0.966110 0.258132 0.000000
vn 0.966110 0.258132 0.000000
vn -0.880612 0.288590 0.375818
vn 0.000000 0.517758 -0.855527
vn 0.000000 0.517758 -0.855527
vn -0.966110 0.258132 0.000000
vn -0.966110 0.258132 0.000000
vn 0.976441 0.215783 0.000000
vn 0.976441 0.215783 0.000000
vn -0.000000 0.242948 0.970039
vn -0.000000 0.242948 0.970039
vn 0.000000 -1.000000 0.000000
vn 0.000000 -1.000000 0.000000
vn 0.000000 -1.000000 0.000000
vn 0.000000 -1.000000 0.000000
s 1
g pCube1
usemtl initialShadingGroup
f 3/3/1 5/10/2 1/5/3 10/17/4
s 2
f 30/38/5 6/11/6 3/3/7 32/39/8
s 3
f 102/109/9 114/121/10 115/122/11 41/48/12
s 2
f 29/36/13 4/4/14 6/11/6 30/38/5
s 3
f 76/83/15 45/52/16 14/21/17 65/72/18
s 5
f 17/26/19 10/16/20 1/1/21 25/32/22
s 6
f 25/32/23 27/34/24 26/33/25 23/30/26
f 24/31/27 28/35/28 22/29/29 21/28/30
f 29/36/31 30/38/32 31/37/33 20/27/34
f 19/25/35 32/39/36 17/26/37 18/24/38
s 5
f 17/26/19 32/39/39 3/8/40 10/16/20
s 8
f 19/25/41 54/61/42 16/23/43
s 9
f 21/28/44 45/52/45 8/13/46 64/71/47
s 10
f 22/29/48 9/15/49 4/7/50 29/36/51
s 8
f 18/24/52 55/62/53 7/12/54 54/61/42
s 9
f 24/31/55 64/71/47 13/20/56
s 12
f 25/32/57 1/1/58 5/9/59 27/34/60
s 13
f 23/30/61 34/41/62 11/18/63
f 26/33/64 36/43/65 12/19/66 34/41/62
s 12
f 27/34/60 5/9/59 2/2/67 28/35/68
s 10
f 22/29/48 28/35/69 2/2/70 9/15/49
s 15
f 31/37/71 35/42/72 20/27/73
f 16/23/74 33/40/75 19/25/76
s 3
f 39/46/77 107/114/78 38/45/79 110/117/80
f 118/125/81 42/49/82 116/123/83 117/124/84
f 37/44/85 108/115/86 7/12/87 109/116/88
f 56/63/89 130/137/90 55/62/91 131/138/92
f 38/45/79 107/114/78 108/115/86 37/44/85
f 56/63/89 57/64/93 129/136/94 130/137/90
f 58/65/95 129/136/94 57/64/93 132/139/96
f 40/47/97 104/111/98 105/112/99 39/46/77
f 58/65/95 59/66/100 126/133/101 127/134/102
f 137/144/103 125/132/104 135/142/105 136/143/106
f 42/49/82 101/108/107 102/109/9 41/48/12
f 60/67/108 61/68/109 123/130/110 124/131/111
f 140/147/112 61/68/109 138/145/113 139/146/114
f 44/51/115 98/105/116 99/106/117 43/50/118
f 62/69/119 63/70/120 120/127/121 121/128/122
f 131/138/92 132/139/96 57/64/93 56/63/89
f 134/141/123 135/142/105 59/66/100 58/65/95
f 137/144/103 138/145/113 61/68/109 60/67/108
f 140/147/112 141/148/124 63/70/120 62/69/119
f 118/125/81 119/126/125 44/51/115 43/50/118
f 115/122/11 116/123/83 42/49/82 41/48/12
f 112/119/126 113/120/127 40/47/97 39/46/77
f 109/116/88 110/117/80 38/45/79 37/44/85
f 16/23/128 54/61/129 86/93/130 75/82/131
f 52/59/132 85/92/133 86/93/130 53/60/134
f 50/57/135 82/89/136 83/90/137 51/58/138
f 48/55/139 79/86/140 80/87/141 49/56/142
f 46/53/143 76/83/15 77/84/144 47/54/145
f 67/74/146 66/73/147 35/42/148 68/75/149
f 66/73/147 77/84/144 76/83/15 65/72/18
f 67/74/146 78/85/150 77/84/144 66/73/147
f 68/75/149 79/86/140 78/85/150 67/74/146
f 69/76/151 80/87/141 79/86/140 68/75/149
f 70/77/152 81/88/153 80/87/141 69/76/151
f 71/78/154 82/89/136 81/88/153 70/77/152
f 72/79/155 83/90/137 82/89/136 71/78/154
f 73/80/156 84/91/157 83/90/137 72/79/155
f 74/81/158 85/92/133 84/91/157 73/80/156
f 75/82/131 86/93/130 85/92/133 74/81/158
f 87/94/159 46/53/143 47/54/145 88/95/160
f 48/55/139 90/97/161 89/96/162 88/95/160
f 90/97/161 48/55/139 49/56/142 91/98/163
f 80/87/141 92/99/164 91/98/163 49/56/142
f 93/100/165 50/57/135 51/58/138 94/101/166
f 52/59/132 96/103/167 51/58/138 85/92/133
f 96/103/167 52/59/132 53/60/134 97/104/168
f 88/95/160 99/106/117 98/105/116 87/94/159
f 89/96/162 100/107/169 99/106/117 88/95/160
f 90/97/161 101/108/107 100/107/169 89/96/162
f 91/98/163 102/109/9 101/108/107 90/97/161
f 92/99/164 103/110/170 102/109/9 91/98/163
f 93/100/165 104/111/98 103/110/170 92/99/164
f 94/101/166 105/112/99 104/111/98 93/100/165
f 95/102/171 106/113/172 105/112/99 94/101/166
f 96/103/167 107/114/78 106/113/172 95/102/171
f 97/104/168 108/115/86 107/114/78 96/103/167
f 118/125/81 121/128/122 120/127/121 119/126/125
f 117/124/84 122/129/173 121/128/122 118/125/81
f 116/123/83 123/130/110 122/129/173 117/124/84
f 115/122/11 124/131/111 123/130/110 116/123/83
f 114/121/10 125/132/104 124/131/111 115/122/11
f 113/120/127 126/133/101 125/132/104 114/121/10
f 112/119/126 127/134/102 126/133/101 113/120/127
f 111/118/174 128/135/175 127/134/102 112/119/126
f 110/117/80 129/136/94 128/135/175 111/118/174
f 109/116/88 130/137/90 129/136/94 110/117/80
f 140/147/112 143/150/176 142/149/177 141/148/124
f 139/146/114 144/151/178 143/150/176 140/147/112
f 138/145/113 145/152/179 144/151/178 139/146/114
f 137/144/103 146/153/180 145/152/179 138/145/113
f 136/143/106 147/154/181 146/153/180 137/144/103
f 135/142/105 148/155/182 147/154/181 136/143/106
f 134/141/123 149/156/183 148/155/182 135/142/105
f 133/140/184 150/157/185 149/156/183 134/141/123
f 132/139/96 151/158/186 150/157/185 133/140/184
f 131/138/92 152/159/187 151/158/186 132/139/96
f 143/150/176 36/43/188 13/20/189 142/149/177
s 6
f 19/25/35 31/37/33 30/38/32 32/39/36
f 29/36/31 20/27/34 21/28/30 22/29/29
f 24/31/27 26/33/25 27/34/24 28/35/28
f 25/32/23 23/30/26 18/24/38 17/26/37
s 3
f 35/42/148 66/73/147 65/72/18 14/21/17
s 15
f 20/27/73 35/42/72 14/21/190
s 3
f 70/77/152 69/76/151 15/22/191 71/78/154
f 15/22/191 69/76/151 68/75/149 35/42/148
f 74/81/158 33/40/192 16/23/128 75/82/131
f 72/79/155 33/40/192 74/81/158 73/80/156
s 15
f 19/25/76 33/40/75 31/37/71
s 3
f 72/79/155 71/78/154 15/22/191 33/40/192
s 15
f 31/37/71 33/40/75 15/22/193 35/42/72
s 8
f 18/24/52 54/61/42 19/25/41
s 3
f 54/61/129 97/104/168 53/60/134 86/93/130
s 8
f 11/18/194 55/62/53 23/30/195
f 23/30/195 55/62/53 18/24/52
s 3
f 54/61/129 7/12/87 108/115/86 97/104/168
f 55/62/91 130/137/90 109/116/88 7/12/87
f 131/138/92 55/62/91 11/18/196 152/159/187
s 13
f 26/33/64 34/41/62 23/30/61
f 13/20/197 36/43/65 24/31/198
f 24/31/198 36/43/65 26/33/64
s 9
f 21/28/44 64/71/47 24/31/55
f 14/21/199 45/52/45 20/27/200
f 20/27/200 45/52/45 21/28/44
s 3
f 119/126/125 8/13/201 98/105/116 44/51/115
f 64/71/202 8/13/201 119/126/125 120/127/121
f 98/105/116 8/13/201 45/52/16 87/94/159
f 87/94/159 45/52/16 76/83/15 46/53/143
f 64/71/202 141/148/124 142/149/177 13/20/189
f 64/71/202 120/127/121 63/70/120 141/148/124
f 148/155/182 12/19/203 146/153/180 147/154/181
f 145/152/179 36/43/188 143/150/176 144/151/178
f 149/156/183 34/41/204 12/19/203 148/155/182
f 146/153/180 12/19/203 36/43/188 145/152/179
f 11/18/196 34/41/204 151/158/186 152/159/187
f 151/158/186 34/41/204 149/156/183 150/157/185
f 58/65/95 132/139/96 133/140/184 134/141/123
f 58/65/95 127/134/102 128/135/175 129/136/94
f 61/68/109 121/128/122 122/129/173 123/130/110
f 62/69/119 121/128/122 61/68/109 140/147/112
f 100/107/169 101/108/107 42/49/82 99/106/117
f 99/106/117 42/49/82 118/125/81 43/50/118
f 39/46/77 110/117/80 111/118/174 112/119/126
f 106/113/172 107/114/78 39/46/77 105/112/99
f 48/55/139 77/84/144 78/85/150 79/86/140
f 48/55/139 88/95/160 47/54/145 77/84/144
f 51/58/138 96/103/167 95/102/171 94/101/166
f 85/92/133 51/58/138 83/90/137 84/91/157
f 50/57/135 93/100/165 92/99/164 82/89/136
f 82/89/136 92/99/164 80/87/141 81/88/153
f 60/67/108 124/131/111 125/132/104 137/144/103
f 135/142/105 125/132/104 126/133/101 59/66/100
f 114/121/10 104/111/98 40/47/97 113/120/127
f 103/110/170 104/111/98 114/121/10 102/109/9
s 1
f 5/10/2 4/4/205 9/14/206 2/6/207
f 6/11/208 4/4/205 5/10/2 3/3/1
