# This file uses inches as units for non-parametric coordinates.

mtllib crate.mtl
g default
v -20.574000 20.574000 -22.860002
v 20.574000 20.574000 -22.860002
v 20.574000 20.574000 22.860002
v -20.574000 20.574000 22.860002
v -20.574000 -20.574000 22.860002
v 20.574000 -20.574000 22.860002
v 20.574000 -20.574000 -22.860002
v -20.574000 -20.574000 -22.860002
v -20.574000 22.860002 20.574000
v 20.574000 22.860002 20.574000
v 22.860002 20.574000 20.574000
v 22.860002 -20.574000 20.574000
v 20.574000 -22.860002 20.574000
v -20.574000 -22.860002 20.574000
v -22.860002 -20.574000 20.574000
v -22.860002 20.574000 20.574000
v -20.574000 -22.860002 -20.574000
v 20.574000 -22.860002 -20.574000
v 22.860002 -20.574000 -20.574000
v 22.860002 20.574000 -20.574000
v 20.574000 22.860002 -20.574000
v -20.574000 22.860002 -20.574000
v -22.860002 20.574000 -20.574000
v -22.860002 -20.574000 -20.574000
v 20.574000 -22.860002 20.574013
v 20.574000 -20.574000 22.860015
v 20.574000 20.574000 22.860015
v 20.574000 22.860002 20.574013
v 20.574000 22.860002 -20.573987
v 20.574000 20.574000 -22.859989
v 20.574000 -20.574000 -22.859989
v 20.574000 -22.860002 -20.573987
v -20.574000 -22.860002 20.574013
v -20.574000 -22.860002 -20.573987
v -20.574000 -20.574000 -22.859989
v -20.574000 20.574000 -22.859989
v -20.574000 22.860002 -20.573987
v -20.574000 22.860002 20.574013
v -20.574000 20.574000 22.860015
v -20.574000 -20.574000 22.860015
v 22.860002 20.574000 -20.573987
v 22.860002 20.574000 20.574013
v -22.860002 20.574000 20.574013
v -22.860002 20.574000 -20.573987
v 22.860002 -20.574000 20.574013
v 22.860002 -20.574000 -20.573987
v -22.860002 -20.574000 -20.573987
v -22.860002 -20.574000 20.574013
v 23.876001 -23.876001 20.574013
v 20.574000 -23.876001 20.574013
v 20.574000 -20.574000 23.876014
v 23.876001 -20.574000 23.876001
v 23.876001 20.574000 23.876016
v 20.574000 20.574000 23.876014
v 20.574000 23.876001 20.574013
v 23.876001 23.876001 20.574013
v 23.876001 23.876001 -20.573987
v 20.574000 23.876001 -20.573987
v 20.574000 20.574000 -23.876001
v 23.876001 20.574000 -23.876001
v 23.876001 -20.574000 -23.875988
v 20.574000 -20.574000 -23.875988
v 20.574000 -23.876001 -20.573987
v 23.876001 -23.876001 -20.573987
v -20.574000 -23.876001 20.574013
v -23.876001 -23.876001 20.574013
v -23.876001 -23.876001 -20.573987
v -20.574000 -23.876001 -20.573987
v -20.574000 -20.574000 -23.875988
v -23.876001 -20.574000 -23.876001
v -23.876001 20.574000 -23.876003
v -20.574000 20.574000 -23.876003
v -20.574000 23.876001 -20.573987
v -23.876001 23.876001 -20.573987
v -23.876001 23.876001 20.574013
v -20.574000 23.876001 20.574013
v -20.574000 20.574000 23.876001
v -23.876001 20.574000 23.876001
v -23.876001 -20.574000 23.876001
v -20.574000 -20.574000 23.876001
v -23.876001 23.876001 -23.876001
v -20.574000 23.876001 -23.876003
v 20.574000 23.876001 -23.876001
v 23.876001 23.876001 -23.876003
v 23.876001 20.574000 -20.574000
v 23.876001 20.574000 20.574000
v 20.574000 23.876001 23.876001
v 23.876001 23.876001 23.876001
v -20.574000 23.876001 23.876001
v -23.876001 23.876001 23.876001
v -23.875999 20.574000 20.574000
v -23.876001 20.574000 -20.574000
v -23.876001 -23.876001 23.876001
v -20.574000 -23.876001 23.876001
v 20.574000 -23.876001 23.876001
v 23.876001 -23.876001 23.876001
v 23.876001 -20.574000 20.574000
v 23.876001 -20.574000 -20.574000
v 20.574000 -23.876001 -23.876001
v 23.876001 -23.876001 -23.876001
v -20.574000 -23.876001 -23.876001
v -23.876001 -23.876001 -23.876001
v -23.876001 -20.574000 -20.574000
v -23.876001 -20.574000 20.574000
vt 0.001992 0.394983
vt 0.001992 0.001860
vt 0.001992 0.394983
vt 0.001992 0.001860
vt 0.434872 0.715398
vt 0.222419 0.715398
vt 0.222419 0.502945
vt 0.434872 0.502945
vt 0.434872 0.715398
vt 0.222419 0.715398
vt 0.785555 0.931843
vt 0.785555 0.719390
vt 0.998008 0.719390
vt 0.998008 0.931843
vt 0.785555 0.719390
vt 0.998008 0.719390
vt 0.728273 0.269451
vt 0.745322 0.269451
vt 0.745322 0.481905
vt 0.728273 0.481904
vt 0.728273 0.252402
vt 0.745322 0.252402
vt 0.728273 0.498953
vt 0.745322 0.498953
vt 0.515820 0.269451
vt 0.515820 0.252403
vt 0.515820 0.498953
vt 0.515820 0.481904
vt 0.498771 0.269451
vt 0.498771 0.252402
vt 0.498771 0.498953
vt 0.498771 0.481905
vt 0.263134 0.498953
vt 0.263133 0.481904
vt 0.475587 0.481904
vt 0.475587 0.498953
vt 0.246085 0.481904
vt 0.246085 0.498953
vt 0.492636 0.481904
vt 0.492636 0.498953
vt 0.246085 0.269451
vt 0.263133 0.269451
vt 0.475587 0.269451
vt 0.492636 0.269451
vt 0.246085 0.252402
vt 0.263134 0.252402
vt 0.475587 0.252402
vt 0.492636 0.252402
vt 0.774174 0.719390
vt 0.774174 0.931843
vt 0.774173 0.931843
vt 0.774173 0.719390
vt 0.779419 0.719390
vt 0.779419 0.931843
vt 0.549449 0.931843
vt 0.549449 0.719390
vt 0.549449 0.719390
vt 0.549449 0.931843
vt 0.324725 0.719390
vt 0.324725 0.931843
vt 0.324725 0.931843
vt 0.324725 0.719390
vt 0.318590 0.931843
vt 0.318590 0.719390
vt 0.318590 0.719390
vt 0.318590 0.931843
vt 0.313344 0.931843
vt 0.313344 0.719390
vt 0.237143 0.719390
vt 0.237143 0.931843
vt 0.237143 0.931843
vt 0.237143 0.719390
vt 0.231007 0.931843
vt 0.231007 0.719390
vt 0.231007 0.719390
vt 0.231007 0.931843
vt 0.219626 0.719390
vt 0.224872 0.719390
vt 0.224872 0.931843
vt 0.219626 0.931843
vt 0.213491 0.685292
vt 0.213491 0.897746
vt 0.208245 0.897746
vt 0.208245 0.685292
vt 0.196864 0.897746
vt 0.196864 0.685292
vt 0.202110 0.685292
vt 0.202110 0.897746
vt 0.185483 0.897746
vt 0.185483 0.685292
vt 0.190729 0.685292
vt 0.190729 0.897746
vt 0.179347 0.685292
vt 0.179347 0.897746
vt 0.174102 0.897746
vt 0.174102 0.685292
vt 0.167966 0.685292
vt 0.167966 0.897746
vt 0.162720 0.897746
vt 0.162720 0.685292
vt 0.214445 0.681301
vt 0.001992 0.681301
vt 0.001992 0.468847
vt 0.214445 0.468847
vt 0.214445 0.681301
vt 0.001992 0.681301
vt 0.655103 0.715398
vt 0.442650 0.715398
vt 0.442650 0.502945
vt 0.655103 0.502945
vt 0.442650 0.715398
vt 0.442650 0.502945
vt 0.655103 0.502945
vt 0.263347 0.018909
vt 0.263347 0.231362
vt 0.280395 0.231362
vt 0.280395 0.018909
vt 0.280395 0.248411
vt 0.263347 0.248411
vt 0.280395 0.001860
vt 0.263347 0.001860
vt 0.492849 0.248411
vt 0.492849 0.231362
vt 0.492849 0.018909
vt 0.492849 0.001860
vt 0.509897 0.231362
vt 0.509897 0.248411
vt 0.509897 0.001860
vt 0.509897 0.018909
vt 0.768506 0.481905
vt 0.980959 0.481905
vt 0.980959 0.498953
vt 0.768506 0.498953
vt 0.998008 0.481905
vt 0.998008 0.498953
vt 0.751457 0.481905
vt 0.751457 0.498953
vt 0.980959 0.269451
vt 0.998008 0.269451
vt 0.751457 0.269451
vt 0.768506 0.269451
vt 0.998008 0.252402
vt 0.980959 0.252402
vt 0.768506 0.252402
vt 0.751457 0.252402
vt 0.768038 0.931843
vt 0.768038 0.719390
vt 0.768038 0.719390
vt 0.768038 0.931843
vt 0.555585 0.719390
vt 0.555585 0.719390
vt 0.330861 0.719390
vt 0.330861 0.931843
vt 0.330861 0.931843
vt 0.330861 0.719390
vt 0.543314 0.931843
vt 0.543314 0.931843
vt 0.307209 0.931843
vt 0.307209 0.719390
vt 0.307209 0.719390
vt 0.307209 0.931843
vt 0.301074 0.931843
vt 0.301074 0.719390
vt 0.301074 0.719390
vt 0.301074 0.931843
vt 0.289692 0.719390
vt 0.289692 0.931843
vt 0.289692 0.931843
vt 0.289692 0.719390
vt 0.294938 0.719390
vt 0.294938 0.931843
vt 0.283557 0.931843
vt 0.283557 0.719390
vt 0.283557 0.719390
vt 0.283557 0.931843
vt 0.278311 0.931843
vt 0.278311 0.719390
vt 0.272176 0.931843
vt 0.272176 0.719390
vt 0.272176 0.719390
vt 0.272176 0.931843
vt 0.266930 0.931843
vt 0.266930 0.719390
vt 0.255549 0.719390
vt 0.255549 0.931843
vt 0.255549 0.931843
vt 0.255549 0.719390
vt 0.260795 0.719390
vt 0.260795 0.931843
vt 0.249414 0.719390
vt 0.249414 0.931843
vt 0.249414 0.931843
vt 0.249414 0.719390
vt 0.243278 0.719390
vt 0.243278 0.931843
vt 0.243278 0.931843
vt 0.243278 0.719390
vt 0.151339 0.897746
vt 0.151339 0.685292
vt 0.156585 0.685292
vt 0.156585 0.897746
vt 0.145204 0.685292
vt 0.145204 0.897746
vt 0.139958 0.897746
vt 0.139958 0.685292
vt 0.133822 0.685292
vt 0.133822 0.897746
vt 0.128577 0.897746
vt 0.128577 0.685292
vt 0.117196 0.897746
vt 0.117196 0.685292
vt 0.122441 0.685292
vt 0.122441 0.897746
vt 0.239949 0.464856
vt 0.027496 0.464856
vt 0.027496 0.252402
vt 0.239949 0.252402
vt 0.875335 0.715398
vt 0.662882 0.715398
vt 0.662882 0.502945
vt 0.875335 0.502945
vt 0.009983 0.018909
vt 0.009983 0.231362
vt 0.027031 0.231362
vt 0.027031 0.018909
vt 0.027031 0.248411
vt 0.009983 0.248411
vt 0.027031 0.001860
vt 0.009983 0.001860
vt 0.239485 0.248411
vt 0.239485 0.231362
vt 0.239485 0.001860
vt 0.239485 0.018909
vt 0.256534 0.231362
vt 0.256534 0.248411
vt 0.256534 0.001860
vt 0.256534 0.018909
vt 0.533759 0.018909
vt 0.533759 0.001860
vt 0.746212 0.001860
vt 0.746212 0.018909
vt 0.516710 0.018909
vt 0.516710 0.001860
vt 0.763261 0.018909
vt 0.763261 0.001860
vt 0.516710 0.231362
vt 0.533759 0.231362
vt 0.763261 0.231362
vt 0.746212 0.231362
vt 0.516710 0.248411
vt 0.533759 0.248411
vt 0.746212 0.248411
vt 0.763261 0.248411
vt 0.105815 0.897746
vt 0.105815 0.685292
vt 0.111060 0.685292
vt 0.111060 0.897746
vt 0.099680 0.685292
vt 0.099680 0.897746
vt 0.094434 0.897746
vt 0.094434 0.685292
vt 0.088298 0.685292
vt 0.088298 0.897746
vt 0.083053 0.897746
vt 0.083053 0.685292
vt 0.071672 0.897746
vt 0.071672 0.685292
vt 0.076918 0.685292
vt 0.076918 0.897746
vt 0.060291 0.897746
vt 0.060291 0.685292
vt 0.065537 0.685292
vt 0.065537 0.897746
vt 0.054155 0.685292
vt 0.054155 0.897746
vt 0.048910 0.897746
vt 0.048910 0.685292
vt 0.042774 0.685292
vt 0.042774 0.897746
vt 0.037528 0.897746
vt 0.037528 0.685292
vt 0.026147 0.897746
vt 0.026147 0.685292
vt 0.031393 0.685292
vt 0.031393 0.897746
vn 0.000000 0.000000 -1.000000
vn 0.000000 0.000000 -1.000000
vn 0.000000 0.000000 -1.000000
vn 0.000000 0.000000 -1.000000
vn 0.000000 -1.000000 0.000000
vn 0.000000 -1.000000 0.000000
vn 0.000000 -1.000000 0.000000
vn 0.000000 -1.000000 0.000000
vn 1.000000 0.000000 0.000000
vn 1.000000 0.000000 0.000000
vn 1.000000 0.000000 0.000000
vn 1.000000 0.000000 0.000000
vn 0.000000 1.000000 0.000000
vn 0.000000 1.000000 0.000000
vn 0.000000 1.000000 0.000000
vn 0.000000 1.000000 0.000000
vn 0.000000 0.000000 1.000000
vn 0.000000 0.000000 1.000000
vn 0.000000 0.000000 1.000000
vn 0.000000 0.000000 1.000000
vn -1.000000 0.000000 0.000000
vn -1.000000 0.000000 0.000000
vn -1.000000 0.000000 0.000000
vn -1.000000 0.000000 0.000000
vn 0.000002 -0.000000 1.000000
vn 0.000002 0.000000 1.000000
vn 0.000001 0.000001 1.000000
vn 0.000001 -0.000001 1.000000
vn 0.000000 1.000000 0.000000
vn 0.000000 1.000000 0.000000
vn 0.000000 1.000000 0.000000
vn 0.000000 1.000000 0.000000
vn 0.000000 -0.000000 -1.000000
vn -0.000000 -0.000000 -1.000000
vn 0.000000 0.000000 -1.000000
vn 0.000000 0.000002 -1.000000
vn 0.000000 -1.000000 0.000000
vn 0.000000 -1.000000 0.000000
vn 0.000000 -1.000000 0.000000
vn 0.000000 -1.000000 0.000000
vn 0.000000 -1.000000 0.000000
vn 0.000000 -1.000000 0.000000
vn 0.000000 -1.000000 0.000000
vn 0.000000 -1.000000 0.000000
vn 0.000003 -0.000000 -1.000000
vn 0.000003 -0.000000 -1.000000
vn 0.000001 -0.000000 -1.000000
vn 0.000001 0.000002 -1.000000
vn 0.000000 1.000000 0.000000
vn 0.000000 1.000000 0.000000
vn 0.000000 1.000000 0.000000
vn 0.000000 1.000000 0.000000
vn -0.000000 0.000001 1.000000
vn 0.000000 0.000000 1.000000
vn 0.000000 0.000000 1.000000
vn -0.000000 -0.000001 1.000000
vn 0.000000 0.000000 -1.000000
vn 0.000000 0.000000 -1.000000
vn 0.000000 -0.000000 -1.000000
vn -0.000001 -0.000000 -1.000000
vn 1.000000 0.000000 0.000000
vn 1.000000 0.000000 0.000000
vn 1.000000 -0.000000 0.000000
vn 1.000000 -0.000000 0.000000
vn -0.000000 0.000002 1.000000
vn 0.000000 0.000004 1.000000
vn -0.000000 0.000002 1.000000
vn 0.000000 0.000000 1.000000
vn -1.000000 -0.000001 0.000000
vn -1.000000 -0.000000 0.000000
vn -1.000000 -0.000000 -0.000000
vn -1.000000 -0.000001 -0.000000
vn 0.000000 0.000000 1.000000
vn -0.000000 -0.000002 1.000000
vn 0.000000 -0.000002 1.000000
vn 0.000002 -0.000002 1.000000
vn 1.000000 0.000000 0.000000
vn 1.000000 -0.000000 0.000000
vn 1.000000 0.000000 0.000000
vn 1.000000 0.000000 0.000000
vn 0.000000 0.000004 -1.000000
vn 0.000000 0.000004 -1.000000
vn 0.000000 0.000004 -1.000000
vn 0.000002 0.000002 -1.000000
vn -1.000000 0.000000 0.000000
vn -1.000000 0.000000 0.000000
vn -1.000000 0.000000 0.000000
vn -1.000000 0.000000 -0.000000
vn 0.000000 1.000000 0.000000
vn 0.000000 1.000000 0.000000
vn 0.000000 1.000000 0.000000
vn 0.000000 1.000000 0.000000
vn 1.000000 -0.000000 0.000000
vn 1.000000 -0.000000 0.000000
vn 1.000000 -0.000000 0.000000
vn 1.000000 0.000000 0.000000
vn 0.000000 -1.000000 0.000000
vn 0.000000 -1.000000 0.000000
vn 0.000000 -1.000000 0.000000
vn 0.000000 -1.000000 0.000000
vn -1.000000 0.000000 -0.000000
vn -1.000000 0.000000 0.000000
vn -1.000000 -0.000000 -0.000000
vn -1.000000 -0.000001 -0.000000
vn 0.000000 -1.000000 0.000000
vn 0.000000 -1.000000 0.000000
vn 0.000000 -1.000000 0.000000
vn 0.000000 -1.000000 0.000000
vn 1.000000 -0.000000 0.000000
vn 1.000000 -0.000000 0.000000
vn 1.000000 0.000000 0.000000
vn 1.000000 0.000000 0.000000
vn 0.000000 1.000000 0.000000
vn 0.000000 1.000000 0.000000
vn 0.000000 1.000000 0.000000
vn 0.000000 1.000000 0.000000
vn -1.000000 0.000000 0.000000
vn -1.000000 0.000000 0.000000
vn -1.000000 0.000000 0.000000
vn -1.000000 0.000000 0.000000
vn 0.000000 0.000000 0.000000
vn 0.000000 0.000000 0.000000
vn 0.000000 0.000000 0.000000
vn 0.000000 0.000000 0.000000
vn -1.000000 0.000000 0.000000
vn -1.000000 0.000000 0.000000
vn -1.000000 0.000000 0.000000
vn -1.000000 0.000000 0.000000
vn 0.000000 -0.000000 0.000000
vn 0.000000 -0.000000 0.000000
vn 0.000000 -0.000000 0.000000
vn 0.000000 -0.000000 0.000000
vn 1.000000 0.000000 0.000000
vn 1.000000 0.000000 0.000000
vn 1.000000 0.000000 0.000000
vn 1.000000 0.000000 0.000000
vn 0.000000 0.000000 0.000000
vn 0.000000 0.000000 0.000000
vn 0.000000 0.000000 0.000000
vn 0.000000 0.000000 0.000000
vn -1.000000 0.000000 0.000000
vn -1.000000 0.000000 0.000000
vn -1.000000 0.000000 0.000000
vn -1.000000 0.000000 0.000000
vn 0.000000 0.000000 0.000000
vn 0.000000 0.000000 0.000000
vn 0.000000 0.000000 0.000000
vn 0.000000 0.000000 0.000000
vn 1.000000 0.000000 0.000000
vn 1.000000 0.000000 0.000000
vn 1.000000 0.000000 0.000000
vn 1.000000 0.000000 0.000000
vn 0.000000 1.000000 0.000000
vn 0.000000 1.000000 0.000000
vn 0.000000 1.000000 0.000000
vn 0.000000 1.000000 0.000000
vn 0.000000 0.000000 0.000000
vn 0.000000 0.000000 0.000000
vn 0.000000 0.000000 0.000000
vn 0.000000 0.000000 0.000000
vn 0.000000 -1.000000 0.000000
vn 0.000000 -1.000000 0.000000
vn 0.000000 -1.000000 0.000000
vn 0.000000 -1.000000 0.000000
vn 0.000000 -0.000000 0.000000
vn 0.000000 -0.000000 0.000000
vn 0.000000 -0.000000 0.000000
vn 0.000000 -0.000000 0.000000
vn 0.000000 1.000000 0.000000
vn 0.000000 1.000000 0.000000
vn 0.000000 1.000000 0.000000
vn 0.000000 1.000000 0.000000
vn 0.000000 0.000000 0.000000
vn 0.000000 0.000000 0.000000
vn 0.000000 0.000000 0.000000
vn 0.000000 0.000000 0.000000
vn 0.000000 -1.000000 0.000000
vn 0.000000 -1.000000 0.000000
vn 0.000000 -1.000000 0.000000
vn 0.000000 -1.000000 0.000000
vn 0.000000 -0.000000 0.000000
vn 0.000000 -0.000000 0.000000
vn 0.000000 -0.000000 0.000000
vn 0.000000 -0.000000 0.000000
vn 0.000000 1.000000 0.000000
vn 0.000000 1.000000 0.000000
vn 0.000000 1.000000 0.000000
vn 0.000000 1.000000 0.000000
vn 1.000000 0.000000 0.000000
vn 1.000000 0.000000 0.000000
vn 1.000000 0.000000 0.000000
vn 1.000000 0.000000 0.000000
vn 0.000000 -1.000000 0.000000
vn 0.000000 -1.000000 0.000000
vn 0.000000 -1.000000 0.000000
vn 0.000000 -1.000000 0.000000
vn -1.000000 0.000000 0.000000
vn -1.000000 0.000000 0.000000
vn -1.000000 0.000000 0.000000
vn -1.000000 0.000000 0.000000
vn 0.000000 1.000000 0.000000
vn 0.000000 1.000000 0.000000
vn 0.000000 1.000000 0.000000
vn 0.000000 1.000000 0.000000
vn -1.000000 0.000000 0.000000
vn -1.000000 0.000000 0.000000
vn -1.000000 0.000000 0.000000
vn -1.000000 0.000000 0.000000
vn 0.000000 -1.000000 0.000000
vn 0.000000 -1.000000 0.000000
vn 0.000000 -1.000000 0.000000
vn 0.000000 -1.000000 0.000000
vn 1.000000 0.000000 0.000000
vn 1.000000 0.000000 0.000000
vn 1.000000 0.000000 0.000000
vn 1.000000 0.000000 0.000000
vn -1.000000 0.000000 0.000000
vn -1.000000 0.000000 0.000000
vn -1.000000 0.000000 0.000000
vn -1.000000 0.000000 0.000000
vn -1.000000 0.000000 0.000000
vn -1.000000 0.000000 0.000000
vn -1.000000 0.000000 0.000000
vn -1.000000 0.000000 0.000000
vn -1.000000 0.000000 0.000000
vn -1.000000 0.000000 0.000000
vn -1.000000 0.000000 0.000000
vn -1.000000 0.000000 0.000000
vn -1.000000 0.000000 0.000000
vn -1.000000 0.000000 0.000000
vn -1.000000 0.000000 0.000000
vn -1.000000 0.000000 0.000000
vn 1.000000 0.000000 0.000000
vn 1.000000 0.000000 0.000000
vn 1.000000 0.000000 0.000000
vn 1.000000 0.000000 0.000000
vn 1.000000 0.000000 0.000000
vn 1.000000 0.000000 0.000000
vn 1.000000 0.000000 0.000000
vn 1.000000 0.000000 0.000000
vn 1.000000 0.000000 0.000000
vn 1.000000 0.000000 0.000000
vn 1.000000 0.000000 0.000000
vn 1.000000 0.000000 0.000000
vn 1.000000 0.000000 0.000000
vn 1.000000 0.000000 0.000000
vn 1.000000 0.000000 0.000000
vn 1.000000 0.000000 0.000000
vn 0.000000 -1.000000 0.000000
vn 0.000000 -1.000000 0.000000
vn 0.000000 -1.000000 0.000000
vn 0.000000 -1.000000 0.000000
vn 0.000000 -1.000000 0.000000
vn 0.000000 -1.000000 0.000000
vn 0.000000 -1.000000 0.000000
vn 0.000000 -1.000000 0.000000
vn 0.000000 -1.000000 0.000000
vn 0.000000 -1.000000 0.000000
vn 0.000000 -1.000000 0.000000
vn 0.000000 -1.000000 0.000000
vn 0.000000 -1.000000 0.000000
vn 0.000000 -1.000000 0.000000
vn 0.000000 -1.000000 0.000000
vn 0.000000 -1.000000 0.000000
vn 0.000000 1.000000 0.000000
vn 0.000000 1.000000 0.000000
vn 0.000000 1.000000 0.000000
vn 0.000000 1.000000 0.000000
vn 0.000000 1.000000 0.000000
vn 0.000000 1.000000 0.000000
vn 0.000000 1.000000 0.000000
vn 0.000000 1.000000 0.000000
vn 0.000000 1.000000 0.000000
vn 0.000000 1.000000 0.000000
vn 0.000000 1.000000 0.000000
vn 0.000000 1.000000 0.000000
vn 0.000000 1.000000 0.000000
vn 0.000000 1.000000 0.000000
vn 0.000000 1.000000 0.000000
vn 0.000000 1.000000 0.000000
vn 0.000000 0.000000 -1.000000
vn 0.000000 0.000000 -1.000000
vn 0.000000 0.000000 -1.000000
vn 0.000000 0.000000 -1.000000
vn -0.000013 0.000000 -1.000000
vn -0.000013 0.000000 -1.000000
vn -0.000013 0.000000 -1.000000
vn -0.000013 0.000000 -1.000000
vn 0.000000 0.000000 -1.000000
vn 0.000000 0.000000 -1.000000
vn 0.000000 0.000000 -1.000000
vn 0.000000 0.000000 -1.000000
vn 0.000013 0.000000 -1.000000
vn 0.000013 0.000000 -1.000000
vn 0.000013 0.000000 -1.000000
vn 0.000013 0.000000 -1.000000
vn 0.000000 0.000000 1.000000
vn 0.000000 0.000000 1.000000
vn 0.000000 0.000000 1.000000
vn 0.000000 0.000000 1.000000
vn 0.000013 0.000000 1.000000
vn 0.000013 0.000000 1.000000
vn 0.000013 0.000000 1.000000
vn 0.000013 0.000000 1.000000
vn 0.000000 0.000000 1.000000
vn 0.000000 0.000000 1.000000
vn 0.000000 0.000000 1.000000
vn 0.000000 0.000000 1.000000
vn -0.000013 0.000000 1.000000
vn -0.000013 0.000000 1.000000
vn -0.000013 0.000000 1.000000
vn -0.000013 0.000000 1.000000
s off
g pCube1
usemtl standardSurface2SG
f 7/214/1 8/215/2 1/216/3 2/217/4
f 13/101/5 14/102/6 17/103/7 18/104/8
f 11/5/9 12/6/10 19/7/11 20/8/12
f 21/107/13 22/108/14 9/109/15 10/110/16
f 3/218/17 4/219/18 5/220/19 6/221/20
f 24/11/21 15/12/22 16/13/23 23/14/24
s 1
f 52/222/25 53/223/26 54/224/27 51/225/28
s 2
f 56/114/29 57/115/30 58/116/31 55/117/32
s 3
f 59/238/33 60/239/34 61/240/35 62/241/36
s 4
f 50/130/37 63/131/38 64/132/39 49/133/40
f 66/144/41 67/143/42 68/138/43 65/141/44
s 3
f 70/252/45 71/251/46 72/247/47 69/249/48
s 2
f 73/123/49 74/126/50 75/129/51 76/124/52
s 1
f 77/231/53 78/234/54 79/237/55 80/233/56
s 3
f 81/250/57 82/246/58 72/247/47 71/251/46
f 82/246/58 83/242/59 59/238/33 72/247/47
f 60/239/34 59/238/33 83/242/59 84/243/60
s 9
f 85/17/61 57/18/62 56/19/63 86/20/64
s 1
f 87/226/65 54/224/27 53/223/26 88/227/66
f 54/224/27 87/226/65 89/230/67 77/231/53
f 78/234/54 77/231/53 89/230/67 90/235/68
s 10
f 74/33/69 92/34/70 91/35/71 75/36/72
s 1
f 93/236/73 94/232/74 80/233/56 79/237/55
f 94/232/74 95/228/75 51/225/28 80/233/56
f 52/222/25 51/225/28 95/228/75 96/229/76
s 9
f 49/32/77 64/29/78 98/25/79 97/28/80
s 3
f 99/244/81 62/241/36 61/240/35 100/245/82
f 62/241/36 99/244/81 101/248/83 69/249/48
f 70/252/45 69/249/48 101/248/83 102/253/84
s 10
f 103/42/85 67/46/86 66/47/87 104/43/88
s 2
f 90/128/89 89/125/90 76/124/52 75/129/51
f 87/120/91 55/117/32 76/124/52 89/125/90
f 56/114/29 55/117/32 87/120/91 88/121/92
s 9
f 53/23/93 86/20/64 56/19/63 88/24/94
f 86/20/64 53/23/93 52/27/95 97/28/80
f 96/31/96 49/32/77 97/28/80 52/27/95
s 4
f 95/136/97 50/130/37 49/133/40 96/137/98
f 50/130/37 95/136/97 94/140/99 65/141/44
f 66/144/41 65/141/44 94/140/99 93/145/100
s 10
f 79/44/101 104/43/88 66/47/87 93/48/102
f 78/39/103 91/35/71 104/43/88 79/44/101
f 75/36/72 91/35/71 78/39/103 90/40/104
s 4
f 102/142/105 101/139/106 68/138/43 67/143/42
f 99/134/107 63/131/38 68/138/43 101/139/106
f 64/132/39 63/131/38 99/134/107 100/135/108
s 9
f 61/26/109 98/25/79 64/29/78 100/30/110
f 60/21/111 85/17/61 98/25/79 61/26/109
f 57/18/62 85/17/61 60/21/111 84/22/112
s 2
f 83/118/113 58/116/31 57/115/30 84/119/114
f 58/116/31 83/118/113 82/122/115 73/123/49
f 74/126/50 73/123/49 82/122/115 81/127/116
s 10
f 71/37/117 92/34/70 74/33/69 81/38/118
f 92/34/70 71/37/117 70/41/119 103/42/85
f 102/45/120 67/46/86 103/42/85 70/41/119
s off
f 25/3/121 13/1/122 18/2/123 32/4/124
f 26/49/125 27/50/126 3/51/127 6/52/128
f 28/146/129 29/147/130 21/148/131 10/149/132
f 30/55/133 31/56/134 7/57/135 2/58/136
f 33/152/137 34/153/138 17/154/139 14/155/140
f 35/59/141 36/60/142 1/61/143 8/62/144
f 37/111/145 38/112/146 9/109/147 22/108/148
f 39/63/149 40/64/150 5/65/151 4/66/152
f 36/158/153 30/159/154 2/160/155 1/161/156
f 41/162/157 42/163/158 11/164/159 20/165/160
f 27/166/161 39/167/162 4/168/163 3/169/164
f 43/172/165 44/173/166 23/174/167 16/175/168
f 40/178/169 26/179/170 6/180/171 5/181/172
f 45/184/173 46/185/174 19/186/175 12/187/176
f 31/190/177 35/191/178 8/192/179 7/193/180
f 47/194/181 48/195/182 15/196/183 24/197/184
f 38/112/185 28/113/186 10/110/187 9/109/188
f 42/9/189 45/10/190 12/6/191 11/5/192
f 25/105/193 33/106/194 14/102/195 13/101/196
f 48/15/197 43/16/198 16/13/199 15/12/200
f 34/153/201 32/156/202 18/157/203 17/154/204
f 46/69/205 41/70/206 20/71/207 19/72/208
f 29/147/209 37/150/210 22/151/211 21/148/212
f 44/73/213 47/74/214 24/75/215 23/76/216
f 50/77/217 25/78/218 32/79/219 63/80/220
f 51/53/221 54/54/222 27/50/223 26/49/224
f 55/81/225 58/82/226 29/83/227 28/84/228
f 59/85/229 62/86/230 31/87/231 30/88/232
f 65/89/233 68/90/234 34/91/235 33/92/236
f 69/93/237 72/94/238 36/95/239 35/96/240
f 73/97/241 76/98/242 38/99/243 37/100/244
f 77/67/245 80/68/246 40/64/247 39/63/248
f 72/198/249 59/199/250 30/200/251 36/201/252
f 85/202/253 86/203/254 42/204/255 41/205/256
f 54/170/257 77/171/258 39/167/259 27/166/260
f 91/176/261 92/177/262 44/173/263 43/172/264
f 80/182/265 51/183/266 26/179/267 40/178/268
f 97/188/269 98/189/270 46/185/271 45/184/272
f 62/206/273 69/207/274 35/208/275 31/209/276
f 103/210/277 104/211/278 48/212/279 47/213/280
f 76/254/281 55/255/282 28/256/283 38/257/284
f 86/258/285 97/259/286 45/260/287 42/261/288
f 50/262/289 65/263/290 33/264/291 25/265/292
f 104/266/293 91/267/294 43/268/295 48/269/296
f 68/270/297 63/271/298 32/272/299 34/273/300
f 98/274/301 85/275/302 41/276/303 46/277/304
f 58/278/305 73/279/306 37/280/307 29/281/308
f 92/282/309 103/283/310 47/284/311 44/285/312
